<region> sample=CHR_021.wav key=0 pan=-63 pitch_keycenter=21 ampeg_release=1.101
<region> sample=CHR_021.wav key=1 pan=-62 pitch_keycenter=21 ampeg_release=1.103
<region> sample=CHR_021.wav key=2 pan=-61 pitch_keycenter=21 ampeg_release=1.106
<region> sample=CHR_021.wav key=3 pan=-60 pitch_keycenter=21 ampeg_release=1.107
<region> sample=CHR_021.wav key=4 pan=-59 pitch_keycenter=21 ampeg_release=1.108
<region> sample=CHR_021.wav key=5 pan=-58 pitch_keycenter=21 ampeg_release=1.113
<region> sample=CHR_021.wav key=6 pan=-57 pitch_keycenter=21 ampeg_release=1.131
<region> sample=CHR_021.wav key=7 pan=-56 pitch_keycenter=21 ampeg_release=1.137
<region> sample=CHR_021.wav key=8 pan=-55 pitch_keycenter=21 ampeg_release=1.138
<region> sample=CHR_021.wav key=9 pan=-54 pitch_keycenter=21 ampeg_release=1.142
<region> sample=CHR_022.wav key=10 pan=-53 pitch_keycenter=21 ampeg_release=1.145
<region> sample=CHR_022.wav key=11 pan=-52 pitch_keycenter=21 ampeg_release=1.169
<region> sample=CHR_022.wav key=12 pan=-51 pitch_keycenter=21 ampeg_release=1.171
<region> sample=CHR_022.wav key=13 pan=-50 pitch_keycenter=21 ampeg_release=1.173
<region> sample=CHR_022.wav key=14 pan=-49 pitch_keycenter=21 ampeg_release=1.177
<region> sample=CHR_022.wav key=15 pan=-48 pitch_keycenter=21 ampeg_release=1.186
<region> sample=CHR_022.wav key=16 pan=-47 pitch_keycenter=21 ampeg_release=1.187
<region> sample=CHR_022.wav key=17 pan=-46 pitch_keycenter=21 ampeg_release=1.194
<region> sample=CHR_022.wav key=18 pan=-45 pitch_keycenter=21 ampeg_release=1.195
<region> sample=CHR_022.wav key=19 pan=-44 pitch_keycenter=21 ampeg_release=1.208
<region> sample=CHR_023.wav key=20 pan=-43 pitch_keycenter=21 ampeg_release=1.236
<region> sample=CHR_021.wav key=21 pan=-42 pitch_keycenter=21 ampeg_release=1.240
<region> sample=CHR_022.wav key=22 pan=-41 ampeg_release=1.242
<region> sample=CHR_023.wav key=23 pan=-40 ampeg_release=1.244
<region> sample=CHR_024.wav key=24 pan=-39 ampeg_release=1.250
<region> sample=CHR_025.wav key=25 pan=-38 ampeg_release=1.251
<region> sample=CHR_026.wav key=26 pan=-37 ampeg_release=2.257
<region> sample=CHR_027.wav key=27 pan=-36 ampeg_release=2.263
<region> sample=CHR_028.wav key=28 pan=-35 ampeg_release=2.274
<region> sample=CHR_029.wav key=29 pan=-34 ampeg_release=2.276
<region> sample=CHR_030.wav key=30 pan=-33 ampeg_release=2.305
<region> sample=CHR_031.wav key=31 pan=-32 ampeg_release=2.306
<region> sample=CHR_032.wav key=32 pan=-31 ampeg_release=2.309
<region> sample=CHR_033.wav key=33 pan=-30 ampeg_release=2.311
<region> sample=CHR_034.wav key=34 pan=-29 ampeg_release=2.314
<region> sample=CHR_035.wav key=35 pan=-28 ampeg_release=2.317
<region> sample=CHR_036.wav key=36 pan=-27 ampeg_release=2.321
<region> sample=CHR_037.wav key=37 pan=-26 ampeg_release=2.323
<region> sample=CHR_038.wav key=38 pan=-25 ampeg_release=2.329
<region> sample=CHR_039.wav key=39 pan=-24 ampeg_release=2.342
<region> sample=CHR_040.wav key=40 pan=-23 ampeg_release=2.371
<region> sample=CHR_041.wav key=41 pan=-22 ampeg_release=2.373
<region> sample=CHR_042.wav key=42 pan=-21 ampeg_release=2.377
<region> sample=CHR_043.wav key=43 pan=-20 ampeg_release=2.379
<region> sample=CHR_044.wav key=44 pan=-19 ampeg_release=2.381
<region> sample=CHR_045.wav key=45 pan=-18 ampeg_release=2.383
<region> sample=CHR_046.wav key=46 pan=-17 ampeg_release=2.386
<region> sample=CHR_047.wav key=47 pan=-16 ampeg_release=2.398
<region> sample=CHR_048.wav key=48 pan=-15 ampeg_release=2.399
<region> sample=CHR_049.wav key=49 pan=-14 ampeg_release=2.403
<region> sample=CHR_050.wav key=50 pan=-13 ampeg_release=2.404
<region> sample=CHR_051.wav key=51 pan=-12 ampeg_release=3.409
<region> sample=CHR_052.wav key=52 pan=-11 ampeg_release=3.420
<region> sample=CHR_053.wav key=53 pan=-10 ampeg_release=3.427
<region> sample=CHR_054.wav key=54 pan=-9 ampeg_release=3.431
<region> sample=CHR_055.wav key=55 pan=-8 ampeg_release=3.445
<region> sample=CHR_056.wav key=56 pan=-7 ampeg_release=3.452
<region> sample=CHR_057.wav key=57 pan=-6 ampeg_release=3.460
<region> sample=CHR_058.wav key=58 pan=-5 ampeg_release=3.470
<region> sample=CHR_059.wav key=59 pan=-4 ampeg_release=3.477
<region> sample=CHR_060.wav key=60 pan=-3 ampeg_release=3.479
<region> sample=CHR_061.wav key=61 pan=-2 ampeg_release=3.482
<region> sample=CHR_062.wav key=62 pan=-1 ampeg_release=3.487
<region> sample=CHR_063.wav key=63 pan=0 ampeg_release=3.492
<region> sample=CHR_064.wav key=64 pan=1 ampeg_release=3.498
<region> sample=CHR_065.wav key=65 pan=2 ampeg_release=3.504
<region> sample=CHR_066.wav key=66 pan=3 ampeg_release=3.507
<region> sample=CHR_067.wav key=67 pan=4 ampeg_release=3.514
<region> sample=CHR_068.wav key=68 pan=5 ampeg_release=3.524
<region> sample=CHR_069.wav key=69 pan=6 ampeg_release=3.532
<region> sample=CHR_070.wav key=70 pan=7 ampeg_release=3.555
<region> sample=CHR_071.wav key=71 pan=8 ampeg_release=3.557
<region> sample=CHR_072.wav key=72 pan=9 ampeg_release=3.576
<region> sample=CHR_073.wav key=73 pan=10 ampeg_release=3.586
<region> sample=CHR_074.wav key=74 pan=11 ampeg_release=3.587
<region> sample=CHR_075.wav key=75 pan=12 ampeg_release=3.589
<region> sample=CHR_076.wav key=76 pan=13 ampeg_release=3.591
<region> sample=CHR_077.wav key=77 pan=14 ampeg_release=4.601
<region> sample=CHR_078.wav key=78 pan=15 ampeg_release=4.621
<region> sample=CHR_079.wav key=79 pan=16 ampeg_release=4.654
<region> sample=CHR_080.wav key=80 pan=17 ampeg_release=4.655
<region> sample=CHR_081.wav key=81 pan=18 ampeg_release=4.664
<region> sample=CHR_082.wav key=82 pan=19 ampeg_release=4.665
<region> sample=CHR_083.wav key=83 pan=20 ampeg_release=4.675
<region> sample=CHR_084.wav key=84 pan=21 ampeg_release=4.686
<region> sample=CHR_085.wav key=85 pan=22 ampeg_release=4.695
<region> sample=CHR_086.wav key=86 pan=23 ampeg_release=4.702
<region> sample=CHR_087.wav key=87 pan=24 ampeg_release=4.705
<region> sample=CHR_088.wav key=88 pan=25 ampeg_release=4.710
<region> sample=CHR_089.wav key=89 pan=26 ampeg_release=4.723
<region> sample=CHR_090.wav key=90 pan=27 ampeg_release=4.725
<region> sample=CHR_091.wav key=91 pan=28 ampeg_release=4.727
<region> sample=CHR_092.wav key=92 pan=29 ampeg_release=4.731
<region> sample=CHR_093.wav key=93 pan=30 ampeg_release=4.732
<region> sample=CHR_094.wav key=94 pan=31 ampeg_release=4.735
<region> sample=CHR_095.wav key=95 pan=32 ampeg_release=4.742
<region> sample=CHR_096.wav key=96 pan=33 ampeg_release=4.743
<region> sample=CHR_097.wav key=97 pan=34 ampeg_release=4.744
<region> sample=CHR_098.wav key=98 pan=35 ampeg_release=4.745
<region> sample=CHR_099.wav key=99 pan=36 ampeg_release=4.750
<region> sample=CHR_100.wav key=100 pan=37 ampeg_release=4.757
<region> sample=CHR_101.wav key=101 pan=38 ampeg_release=4.762
<region> sample=CHR_102.wav key=102 pan=39 ampeg_release=5.770
<region> sample=CHR_103.wav key=103 pan=40 ampeg_release=5.780
<region> sample=CHR_104.wav key=104 pan=41 ampeg_release=5.790
<region> sample=CHR_105.wav key=105 pan=42 ampeg_release=5.805
<region> sample=CHR_106.wav key=106 pan=43 ampeg_release=5.815
<region> sample=CHR_107.wav key=107 pan=44 ampeg_release=5.817
<region> sample=CHR_108.wav key=108 pan=45 pitch_keycenter=108 ampeg_release=5.828
<region> sample=CHR_108.wav key=109 pan=46 pitch_keycenter=108 ampeg_release=5.831
<region> sample=CHR_108.wav key=110 pan=47 pitch_keycenter=108 ampeg_release=5.833
<region> sample=CHR_108.wav key=111 pan=48 pitch_keycenter=108 ampeg_release=5.834
<region> sample=CHR_108.wav key=112 pan=49 pitch_keycenter=108 ampeg_release=5.838
<region> sample=CHR_108.wav key=113 pan=50 pitch_keycenter=108 ampeg_release=5.844
<region> sample=CHR_108.wav key=114 pan=51 pitch_keycenter=108 ampeg_release=5.853
<region> sample=CHR_108.wav key=115 pan=52 pitch_keycenter=108 ampeg_release=5.878
<region> sample=CHR_108.wav key=116 pan=53 pitch_keycenter=108 ampeg_release=5.900
<region> sample=CHR_108.wav key=117 pan=54 pitch_keycenter=108 ampeg_release=5.905
<region> sample=CHR_108.wav key=118 pan=55 pitch_keycenter=108 ampeg_release=5.914
<region> sample=CHR_108.wav key=119 pan=56 pitch_keycenter=108 ampeg_release=5.939
<region> sample=CHR_108.wav key=120 pan=57 pitch_keycenter=108 ampeg_release=5.942
<region> sample=CHR_108.wav key=121 pan=58 pitch_keycenter=108 ampeg_release=5.943
<region> sample=CHR_108.wav key=122 pan=59 pitch_keycenter=108 ampeg_release=5.944
<region> sample=CHR_108.wav key=123 pan=60 pitch_keycenter=108 ampeg_release=5.945
<region> sample=CHR_108.wav key=124 pan=61 pitch_keycenter=108 ampeg_release=5.964
<region> sample=CHR_108.wav key=125 pan=62 pitch_keycenter=108 ampeg_release=5.977
<region> sample=CHR_108.wav key=126 pan=63 pitch_keycenter=108 ampeg_release=5.980
<region> sample=CHR_108.wav key=127 pan=64 pitch_keycenter=108 ampeg_release=6.995